HIERARCHY
ROOT Hips
{
	OFFSET -0.001795 -0.223333 0.028219
	CHANNELS 6 Xposition Yposition Zposition Zrotation Yrotation Xrotation 
	JOINT LeftUpLeg
	{
		OFFSET 0.069520 -0.091406 -0.006815
		CHANNELS 3 Zrotation Yrotation Xrotation
		JOINT LeftLeg
		{
			OFFSET 0.034277 -0.375199 -0.004496
			CHANNELS 3 Zrotation Yrotation Xrotation
			JOINT LeftFoot
			{
				OFFSET -0.013596 -0.397961 -0.043693
				CHANNELS 3 Zrotation Yrotation Xrotation
				JOINT LeftToe
				{
					OFFSET 0.026358 -0.055791 0.119288
					CHANNELS 3 Zrotation Yrotation Xrotation
					End Site
					{
						OFFSET 0.000000 0.000000 0.000000
					}
				}
			}
		}
	}
	JOINT RightUpLeg
	{
		OFFSET -0.067670 -0.090522 -0.004320
		CHANNELS 3 Zrotation Yrotation Xrotation
		JOINT RightLeg
		{
			OFFSET -0.038290 -0.382569 -0.008850
			CHANNELS 3 Zrotation Yrotation Xrotation
			JOINT RightFoot
			{
				OFFSET 0.015774 -0.398415 -0.042312
				CHANNELS 3 Zrotation Yrotation Xrotation
				JOINT RightToe
				{
					OFFSET -0.025372 -0.048144 0.123348
					CHANNELS 3 Zrotation Yrotation Xrotation
					End Site
					{
						OFFSET 0.000000 0.000000 0.000000
					}
				}
			}
		}
	}
	JOINT Spine
	{
		OFFSET -0.002533 0.108963 -0.026696
		CHANNELS 3 Zrotation Yrotation Xrotation
		JOINT Spine1
		{
			OFFSET 0.005487 0.135180 0.001092
			CHANNELS 3 Zrotation Yrotation Xrotation
			JOINT Spine2
			{
				OFFSET 0.001457 0.052922 0.025425
				CHANNELS 3 Zrotation Yrotation Xrotation
				JOINT Neck
				{
					OFFSET -0.002778 0.213870 -0.042857
					CHANNELS 3 Zrotation Yrotation Xrotation
					JOINT Head
					{
						OFFSET 0.005152 0.064970 0.051349
						CHANNELS 3 Zrotation Yrotation Xrotation
						End Site
						{
							OFFSET 0.000000 0.000000 0.000000
						}
					}
				}
				JOINT LeftShoulder
				{
					OFFSET 0.078845 0.121749 -0.034090
					CHANNELS 3 Zrotation Yrotation Xrotation
					JOINT LeftArm
					{
						OFFSET 0.090977 0.030469 -0.008868
						CHANNELS 3 Zrotation Yrotation Xrotation
						JOINT LeftForeArm
						{
							OFFSET 0.259612 -0.012772 -0.027456
							CHANNELS 3 Zrotation Yrotation Xrotation
							JOINT LeftHand
							{
								OFFSET 0.249234 0.008986 -0.001171
								CHANNELS 3 Zrotation Yrotation Xrotation
								End Site
								{
									OFFSET 0.000000 0.000000 0.000000
								}
							}
						}
					}
				}
				JOINT RightShoulder
				{
					OFFSET -0.081759 0.118833 -0.038615
					CHANNELS 3 Zrotation Yrotation Xrotation
					JOINT RightArm
					{
						OFFSET -0.096012 0.032551 -0.009143
						CHANNELS 3 Zrotation Yrotation Xrotation
						JOINT RightForeArm
						{
							OFFSET -0.253742 -0.013329 -0.021401
							CHANNELS 3 Zrotation Yrotation Xrotation
							JOINT RightHand
							{
								OFFSET -0.255298 0.007772 -0.005559
								CHANNELS 3 Zrotation Yrotation Xrotation
								End Site
								{
									OFFSET 0.000000 0.000000 0.000000
								}
							}
						}
					}
				}
			}
		}
	}
}
MOTION
Frames: 12
Frame Time: 0.050000
0.000000 0.912286 0.000000 0.106653 10.719038 -0.838687 3.491736 0.092486 4.441303 -2.873137 -0.594269 22.575484 5.532694 12.080746 3.506820 0.000000 0.000000 0.000000 1.692178 1.630446 -15.870082 6.467065 -1.608996 17.059162 -10.932508 -25.276297 6.032641 0.000000 0.000000 0.000000 0.280673 -0.434551 8.669328 3.057092 -1.675614 1.859503 -1.963195 -4.196584 5.323585 4.909078 -1.561124 -17.304536 0.000000 0.000000 0.000000 -20.113996 -9.205116 2.679012 -51.076810 -11.410070 -1.297398 -2.932536 -24.902276 1.539308 0.000000 0.000000 0.000000 19.133669 11.364039 4.859722 53.943308 14.912728 1.245573 -1.767324 22.059830 0.475426 0.000000 0.000000 0.000000 
-0.006296 0.918403 0.038855 -0.022748 7.211816 -0.136973 5.191708 -0.111516 0.830425 -5.894567 0.354209 30.070454 5.128919 12.420089 7.574118 0.000000 0.000000 0.000000 4.105455 1.786775 -14.130706 4.244356 -0.775654 17.180704 -9.424460 -22.505348 4.981738 0.000000 0.000000 0.000000 0.990263 -0.343666 6.458988 3.152496 -1.789856 2.882923 -2.572537 -2.494850 4.880120 3.918760 -0.659542 -19.766307 0.000000 0.000000 0.000000 -18.511879 -7.948743 2.024932 -52.637576 -11.988262 -1.022686 -4.345305 -23.951791 1.765585 0.000000 0.000000 0.000000 17.221867 9.879973 3.975628 55.638585 14.668428 1.321799 -1.115239 23.308319 0.630473 0.000000 0.000000 0.000000 
-0.012624 0.923948 0.076442 -0.050578 2.889713 -1.549414 6.054068 -0.260612 -4.539917 -9.111009 2.191005 33.787988 9.358188 19.449991 10.312918 0.000000 0.000000 0.000000 5.388363 1.270727 -9.214408 3.250583 -0.290810 15.748941 -7.452964 -18.472543 3.703330 0.000000 0.000000 0.000000 1.868634 -0.492467 8.299067 1.572756 -0.714141 -0.844455 -1.471140 -1.610273 8.416622 2.181480 -0.017957 -18.424126 0.000000 0.000000 0.000000 -20.193963 -6.513609 1.725054 -51.705288 -11.601118 -1.634376 -3.340586 -23.990977 1.671025 0.000000 0.000000 0.000000 15.210735 9.978062 3.720968 55.362811 14.177363 0.745777 2.163255 25.733865 1.360231 0.000000 0.000000 0.000000 
-0.018918 0.927640 0.113667 0.663150 -1.021899 -2.985806 5.632561 -0.373220 -8.626220 -13.147507 3.295338 20.618144 21.150124 35.094584 15.818898 0.000000 0.000000 0.000000 5.638442 0.345898 -2.942995 1.779914 0.123566 11.982131 -5.671170 -14.349784 1.978560 0.000000 0.000000 0.000000 1.113236 -0.422772 8.613921 0.739584 -0.366645 0.189646 -0.531666 0.097556 8.069946 2.947744 -0.536049 -18.258316 0.000000 0.000000 0.000000 -20.716304 -6.114453 1.621662 -51.175507 -10.871076 -1.948031 -4.290397 -23.887172 1.876460 0.000000 0.000000 0.000000 14.883576 10.719793 3.935095 54.504261 14.243370 0.789370 1.727757 28.986586 1.409743 0.000000 0.000000 0.000000 
-0.025411 0.929753 0.151154 1.404891 -6.028906 -3.816622 3.617264 -0.687225 -13.068689 -10.888102 1.846027 6.177433 43.070498 40.751744 58.409942 0.000000 0.000000 0.000000 5.433528 -0.452173 2.434394 0.025610 0.390697 8.407277 -3.630236 -9.191776 0.796454 0.000000 0.000000 0.000000 0.856156 -0.428961 10.184096 0.032492 -0.014517 -1.331790 -0.225326 3.076011 8.966150 3.045953 -0.575402 -18.125082 0.000000 0.000000 0.000000 -21.725478 -6.624337 1.840405 -49.974791 -10.087733 -2.322265 -4.981131 -24.934539 2.107244 0.000000 0.000000 0.000000 15.586437 9.932246 3.615007 53.529302 15.365077 1.157894 2.599171 30.128020 1.718214 0.000000 0.000000 0.000000 
-0.032180 0.929299 0.190216 1.385069 -9.722834 -4.331861 2.192844 -0.885876 -14.687193 -6.770168 0.891873 -1.295811 70.129293 34.170839 105.109755 0.000000 0.000000 0.000000 5.617098 -0.931214 6.020472 -1.272996 0.577669 7.581574 -2.272422 -5.680306 0.323051 0.000000 0.000000 0.000000 0.953053 -0.417752 10.722770 -0.577952 0.254412 -1.092318 0.490544 3.511537 8.294109 3.055508 -0.717221 -18.497285 0.000000 0.000000 0.000000 -21.505328 -6.424006 2.183944 -51.354771 -10.219890 -2.365234 -4.058802 -24.194150 1.912780 0.000000 0.000000 0.000000 14.230217 10.258247 3.388263 54.748982 15.718734 1.485434 2.562344 31.078496 1.646081 0.000000 0.000000 0.000000 
-0.039170 0.925787 0.231519 1.320822 -12.664744 -4.712750 0.635766 -1.040499 -14.336638 -3.356547 0.480362 -3.400637 34.268207 32.062186 71.745716 0.000000 0.000000 0.000000 5.544266 -1.284058 9.294759 -2.345786 0.735072 7.327313 -1.353185 -3.024337 -0.361376 0.000000 0.000000 0.000000 1.162692 -0.413884 11.054670 -1.633761 0.700331 -2.517425 0.822338 4.111383 9.880608 3.649847 -1.275541 -18.052035 0.000000 0.000000 0.000000 -20.421067 -6.479913 2.616460 -52.139346 -11.664189 -1.983618 -2.088613 -23.240168 1.501156 0.000000 0.000000 0.000000 14.458083 9.326867 2.724184 55.457936 15.631704 1.334063 4.249882 31.764815 2.077564 0.000000 0.000000 0.000000 
-0.046077 0.920549 0.275518 1.462401 -16.245863 -5.221108 -0.257034 -1.076514 -13.683315 -1.118270 0.144137 1.802899 1.155800 5.847842 20.145690 0.000000 0.000000 0.000000 4.794398 -1.437276 12.659467 -3.458954 0.902412 7.246206 -0.258895 0.062070 -0.917776 0.000000 0.000000 0.000000 0.407851 -0.303638 10.664169 -1.873563 0.854919 -0.724786 0.768719 5.433688 8.634578 5.510671 -2.486527 -17.343564 0.000000 0.000000 0.000000 -20.332691 -7.242127 3.097950 -51.849770 -12.424340 -1.549001 -0.771550 -22.721033 1.198575 0.000000 0.000000 0.000000 15.844995 9.109738 2.438136 55.891347 14.699198 1.071289 4.304064 30.712292 1.967883 0.000000 0.000000 0.000000 
-0.053435 0.917938 0.322147 1.725728 -20.045490 -6.170237 -1.048868 -1.073927 -12.567500 0.142934 -0.062081 7.646405 -0.182506 1.868119 11.705582 0.000000 0.000000 0.000000 3.487466 -1.230822 14.606224 -3.835550 1.424240 11.303761 0.468756 1.773233 -0.832853 0.000000 0.000000 0.000000 -1.083919 -0.139505 9.733007 -2.016510 0.892961 -0.982995 1.528688 5.531583 10.553392 4.503029 -2.239391 -16.654557 0.000000 0.000000 0.000000 -21.031640 -6.905024 3.671222 -51.649973 -13.981648 -1.239481 1.239955 -22.199100 0.889810 0.000000 0.000000 0.000000 16.605024 10.555271 2.613867 56.074297 13.316623 0.339530 2.692423 30.237847 1.399116 0.000000 0.000000 0.000000 
-0.060903 0.920981 0.368788 2.003791 -21.679238 -6.859431 -2.391125 -1.075820 -10.091209 1.162546 -0.229977 10.315137 1.080555 3.331280 7.731144 0.000000 0.000000 0.000000 1.668568 -0.810950 12.618982 -1.919771 2.395465 21.201974 1.626482 0.392647 4.254614 0.000000 0.000000 0.000000 -2.394916 -0.019879 9.459642 -1.441627 0.534334 -2.337918 1.651356 4.254854 11.690810 4.493203 -2.563076 -16.433180 0.000000 0.000000 0.000000 -20.703286 -7.008419 4.474289 -51.709002 -15.318930 -0.957364 1.939903 -21.620554 0.830106 0.000000 0.000000 0.000000 16.541170 9.348112 1.454233 57.587120 10.672422 -1.011524 4.513656 29.073816 1.624889 0.000000 0.000000 0.000000 
-0.068678 0.927816 0.411621 2.388678 -26.146782 -7.334026 -2.790600 -0.854182 -7.056493 0.739173 0.012585 11.224082 3.134006 6.803256 6.680067 0.000000 0.000000 0.000000 -1.356755 -0.138688 6.366353 2.171339 4.196587 36.419909 3.309460 -1.741350 12.266126 0.000000 0.000000 0.000000 -3.045013 0.053829 8.701369 -1.487760 0.582793 -1.433371 1.568585 3.134740 11.228605 4.147418 -2.765381 -15.621315 0.000000 0.000000 0.000000 -20.175905 -6.738834 5.255571 -51.710696 -17.118048 -0.339037 2.478005 -21.796005 0.855599 0.000000 0.000000 0.000000 15.859075 9.877387 0.913629 58.657262 8.768860 -1.887712 4.780452 29.008282 1.396610 0.000000 0.000000 0.000000 
-0.077032 0.933054 0.448015 2.016368 -28.605293 -6.726247 -3.074664 -0.503964 -3.330035 0.968684 -0.096593 8.360998 4.178180 8.771056 6.111755 0.000000 0.000000 0.000000 -3.071739 0.308031 -1.375151 8.364330 4.511940 48.668111 0.253923 -10.116337 20.430426 0.000000 0.000000 0.000000 -2.857928 0.059654 8.581093 -1.618590 0.638936 -1.431219 1.438783 0.177673 11.154591 2.098425 -1.925772 -15.521095 0.000000 0.000000 0.000000 -19.450056 -8.084203 7.039523 -49.711776 -19.589787 0.459810 3.167615 -21.168972 0.739976 0.000000 0.000000 0.000000 16.085974 9.966127 -0.149987 58.801320 6.591651 -2.810280 6.372035 29.120783 1.406137 0.000000 0.000000 0.000000 
